<svg xmlns="http://www.w3.org/2000/svg" x="0px" y="0px"
width="25" height="25"
viewBox="0 0 226 226"
style=" fill:#000000;"><g fill="none" fill-rule="nonzero" stroke="none" stroke-width="1" stroke-linecap="butt" stroke-linejoin="miter" stroke-miterlimit="10" stroke-dasharray="" stroke-dashoffset="0" font-family="none" font-weight="none" font-size="none" text-anchor="none" style="mix-blend-mode: normal"><path d="M0,226v-226h226v226z" fill="none"></path><g fill="#5b5eec"><path d="M113,22.6c-49.9234,0 -90.4,40.4766 -90.4,90.4c0,49.9234 40.4766,90.4 90.4,90.4c49.9234,0 90.4,-40.4766 90.4,-90.4c0,-49.9234 -40.4766,-90.4 -90.4,-90.4zM158.2,120.53333h-90.4c-4.1584,0 -7.53333,-3.3674 -7.53333,-7.53333c0,-4.16593 3.37493,-7.53333 7.53333,-7.53333h90.4c4.1584,0 7.53333,3.3674 7.53333,7.53333c0,4.16593 -3.37493,7.53333 -7.53333,7.53333z"></path></g></g></svg>